<svg id="Layer_1" data-name="Layer 1" xmlns="http://www.w3.org/2000/svg" viewBox="0 0 350 113"><defs><style>.cls-1{fill:#42210b;}.cls-2{fill:#003140;}.cls-3{fill:none;stroke:#003140;stroke-miterlimit:10;stroke-width:6px;}</style></defs><title>logo5</title><text x="-18" y="-32"/><path class="cls-1" d="M79.44,84.35a5.8,5.8,0,0,0,4-1.26,4.6,4.6,0,0,0,1.41-3.59v-13q0-5.77,3.22-8.95t9.09-3.18v6.16a6.23,6.23,0,0,0-4.31,1.37,4.92,4.92,0,0,0-1.53,3.87V79.53c0,3.49-1,6.2-3.11,8.11s-5,2.87-8.76,2.87Zm8.62,33q-3.23-3.16-3.22-8.94v-13a4.58,4.58,0,0,0-1.41-3.59,5.81,5.81,0,0,0-4-1.27V84.35q5.69,0,8.78,3t3.09,8.4v13.33a5,5,0,0,0,1.53,3.89,6.18,6.18,0,0,0,4.31,1.38v6.15Q91.29,120.47,88.06,117.32Z" transform="translate(-18 -32)"/><path class="cls-1" d="M307,87.64c-2.08-1.91-3.11-4.62-3.11-8.11V65.79a4.92,4.92,0,0,0-1.53-3.87,6.23,6.23,0,0,0-4.31-1.37V54.39q5.86,0,9.09,3.18t3.22,8.95v13a4.6,4.6,0,0,0,1.41,3.59,5.79,5.79,0,0,0,4,1.26v6.16C312,90.51,309.07,89.56,307,87.64Zm-8.95,26.68a6.18,6.18,0,0,0,4.31-1.38,5,5,0,0,0,1.53-3.89V95.72q0-5.43,3.09-8.4t8.78-3v6.16a5.79,5.79,0,0,0-4,1.27,4.58,4.58,0,0,0-1.41,3.59v13q0,5.78-3.22,8.94t-9.09,3.15Z" transform="translate(-18 -32)"/><path class="cls-2" d="M119.43,111.32a11.49,11.49,0,0,1-4.94-5,17.44,17.44,0,0,1-1.7-8V94.56a19.43,19.43,0,0,1,1.64-8.35,11.76,11.76,0,0,1,4.74-5.27,14.73,14.73,0,0,1,7.49-1.8,11.88,11.88,0,0,1,7.05,2.06,12.83,12.83,0,0,1,4.46,6,25.62,25.62,0,0,1,1.54,9.36v2.16H117.49V93.48h16.06a11,11,0,0,0-2.08-6.27A5.85,5.85,0,0,0,126.66,85,7,7,0,0,0,121,87.39q-2,2.42-2,6.82V98.4a8.56,8.56,0,0,0,2.16,6.28,8.21,8.21,0,0,0,6.12,2.19,10.23,10.23,0,0,0,3.91-.79,11.38,11.38,0,0,0,3.46-2.22l4.25,4.25a18,18,0,0,1-5.49,3.64,15.75,15.75,0,0,1-6.13,1.28A16.49,16.49,0,0,1,119.43,111.32Z" transform="translate(-18 -32)"/><path class="cls-2" d="M152.86,111.56A10,10,0,0,1,149,107a18,18,0,0,1-1.33-7.24V92.47a18.24,18.24,0,0,1,1.3-7.27,9.9,9.9,0,0,1,3.79-4.59,11,11,0,0,1,6-1.57,9.93,9.93,0,0,1,5.35,1.52A11.4,11.4,0,0,1,168,84.85l-.67,6.73a7.93,7.93,0,0,0-.76-3.59,5.27,5.27,0,0,0-2.21-2.27,7.28,7.28,0,0,0-3.51-.78,6.27,6.27,0,0,0-5,2,8.21,8.21,0,0,0-1.76,5.62v7.17a7.94,7.94,0,0,0,1.76,5.54,6.34,6.34,0,0,0,5,2,7.06,7.06,0,0,0,3.51-.81,5.3,5.3,0,0,0,2.21-2.33,8.16,8.16,0,0,0,.76-3.65l.44,6.95a9.35,9.35,0,0,1-3.22,4.1,9,9,0,0,1-5.5,1.65A11.63,11.63,0,0,1,152.86,111.56Zm14.46-45.15h6.47v46.15h-6.47Z" transform="translate(-18 -32)"/><path class="cls-2" d="M182.52,105.76h6.79v6.8h-6.79Z" transform="translate(-18 -32)"/><path class="cls-2" d="M201.36,111.56a10,10,0,0,1-3.89-4.59,17.8,17.8,0,0,1-1.33-7.24V92.47a18.24,18.24,0,0,1,1.3-7.27,9.9,9.9,0,0,1,3.79-4.59,11,11,0,0,1,6-1.57,9.91,9.91,0,0,1,5.35,1.52,11.24,11.24,0,0,1,3.92,4.29l-.66,6.73a7.8,7.8,0,0,0-.77-3.59,5.19,5.19,0,0,0-2.2-2.27,7.31,7.31,0,0,0-3.51-.78,6.29,6.29,0,0,0-5,2,8.26,8.26,0,0,0-1.76,5.62v7.17a8,8,0,0,0,1.76,5.54,6.36,6.36,0,0,0,5,2,7.09,7.09,0,0,0,3.51-.81,5.23,5.23,0,0,0,2.2-2.33,8,8,0,0,0,.77-3.65l.44,6.95a9.43,9.43,0,0,1-3.22,4.1,9,9,0,0,1-5.51,1.65A11.61,11.61,0,0,1,201.36,111.56Zm14.46-45.15h6.47v46.15h-6.47Z" transform="translate(-18 -32)"/><path class="cls-2" d="M237.81,111.32a11.54,11.54,0,0,1-4.94-5,17.44,17.44,0,0,1-1.69-8V94.56a19.43,19.43,0,0,1,1.63-8.35,11.72,11.72,0,0,1,4.75-5.27,14.7,14.7,0,0,1,7.49-1.8,11.83,11.83,0,0,1,7,2.06,12.7,12.7,0,0,1,4.46,6,25.41,25.41,0,0,1,1.54,9.36v2.16H235.87V93.48h16.06a11,11,0,0,0-2.08-6.27,5.82,5.82,0,0,0-4.8-2.23,7,7,0,0,0-5.7,2.41,10.37,10.37,0,0,0-2,6.82V98.4a8.56,8.56,0,0,0,2.16,6.28,8.22,8.22,0,0,0,6.13,2.19,10.18,10.18,0,0,0,3.9-.79,11.38,11.38,0,0,0,3.46-2.22l4.25,4.25a18,18,0,0,1-5.49,3.64,15.74,15.74,0,0,1-6.12,1.28A16.53,16.53,0,0,1,237.81,111.32Z" transform="translate(-18 -32)"/><path class="cls-2" d="M285.1,79.61h6.76l-12.38,33h-4.89L262.22,79.61H269L277,103.13Z" transform="translate(-18 -32)"/><path class="cls-2" d="M43.65,64l1.56-4.8L56.76,62.9,55.2,67.72Zm3.14,9.71,7.14-9.84,4.1,3-7.14,9.84Zm6.67-20.51h5V65.31h-5Zm.47,13.65,4.1-3,7.14,9.84-4.1,3Zm1.27-3.9,11.56-3.75L68.31,64,56.76,67.72Z" transform="translate(-18 -32)"/><rect class="cls-3" x="3" y="3" width="344" height="107" rx="25"/></svg>